<mxfile host="app.diagrams.net" modified="2024-02-02T06:34:03.938Z" agent="Mozilla/5.0 (Windows NT 10.0; Win64; x64) AppleWebKit/537.36 (KHTML, like Gecko) Chrome/121.0.0.0 Safari/537.36 Edg/121.0.0.0" etag="UNaSJBD5h983ir3O--Bq" version="23.1.1" type="github">
  <diagram name="Page-1" id="6dxYeh7L-aQaEU0_yvQN">
    <mxGraphModel dx="786" dy="477" grid="1" gridSize="10" guides="1" tooltips="1" connect="1" arrows="1" fold="1" page="1" pageScale="1" pageWidth="1169" pageHeight="827" math="0" shadow="0">
      <root>
        <mxCell id="0" />
        <mxCell id="1" parent="0" />
        <mxCell id="vYEnDuHJtDRZxf-aEN4W-1" style="edgeStyle=orthogonalEdgeStyle;rounded=0;orthogonalLoop=1;jettySize=auto;html=1;exitX=0.5;exitY=0.5;exitDx=0;exitDy=20;exitPerimeter=0;entryX=0.5;entryY=0;entryDx=0;entryDy=0;" edge="1" parent="1" source="vYEnDuHJtDRZxf-aEN4W-2" target="vYEnDuHJtDRZxf-aEN4W-4">
          <mxGeometry relative="1" as="geometry" />
        </mxCell>
        <mxCell id="vYEnDuHJtDRZxf-aEN4W-2" value="Start" style="html=1;dashed=0;whiteSpace=wrap;shape=mxgraph.dfd.start;fontSize=11;" vertex="1" parent="1">
          <mxGeometry x="80" y="40" width="160" height="40" as="geometry" />
        </mxCell>
        <mxCell id="vYEnDuHJtDRZxf-aEN4W-3" style="edgeStyle=orthogonalEdgeStyle;rounded=0;orthogonalLoop=1;jettySize=auto;html=1;exitX=0.5;exitY=1;exitDx=0;exitDy=0;entryX=0.5;entryY=0;entryDx=0;entryDy=0;" edge="1" parent="1" source="vYEnDuHJtDRZxf-aEN4W-4" target="vYEnDuHJtDRZxf-aEN4W-6">
          <mxGeometry relative="1" as="geometry" />
        </mxCell>
        <mxCell id="vYEnDuHJtDRZxf-aEN4W-4" value="&lt;font style=&quot;font-size: 11px;&quot;&gt;BAdI Definition&lt;br&gt;ME_PROCESS_REQ_CUST&lt;br&gt;&lt;/font&gt;" style="shape=process;whiteSpace=wrap;html=1;backgroundOutline=1;fontSize=11;size=0.041666666666666664;" vertex="1" parent="1">
          <mxGeometry x="60" y="100" width="200" height="50" as="geometry" />
        </mxCell>
        <mxCell id="vYEnDuHJtDRZxf-aEN4W-5" style="edgeStyle=orthogonalEdgeStyle;rounded=0;orthogonalLoop=1;jettySize=auto;html=1;exitX=0.5;exitY=1;exitDx=0;exitDy=0;entryX=0.5;entryY=0;entryDx=0;entryDy=0;" edge="1" parent="1" source="vYEnDuHJtDRZxf-aEN4W-6" target="vYEnDuHJtDRZxf-aEN4W-8">
          <mxGeometry relative="1" as="geometry" />
        </mxCell>
        <mxCell id="vYEnDuHJtDRZxf-aEN4W-6" value="&lt;font style=&quot;font-size: 11px;&quot;&gt;BAdI Implementation&lt;br&gt;ZMMPR_PROCESS&lt;br&gt;&lt;/font&gt;" style="shape=process;whiteSpace=wrap;html=1;backgroundOutline=1;fontSize=11;size=0.041666666666666664;" vertex="1" parent="1">
          <mxGeometry x="60" y="170" width="200" height="50" as="geometry" />
        </mxCell>
        <mxCell id="vYEnDuHJtDRZxf-aEN4W-7" style="edgeStyle=orthogonalEdgeStyle;rounded=0;orthogonalLoop=1;jettySize=auto;html=1;exitX=1;exitY=0.5;exitDx=0;exitDy=0;entryX=0;entryY=0.5;entryDx=0;entryDy=0;" edge="1" parent="1" source="vYEnDuHJtDRZxf-aEN4W-8" target="vYEnDuHJtDRZxf-aEN4W-11">
          <mxGeometry relative="1" as="geometry" />
        </mxCell>
        <mxCell id="vYEnDuHJtDRZxf-aEN4W-8" value="&lt;font style=&quot;font-size: 11px;&quot;&gt;Class Implementation&lt;br&gt;ZCL_IM_MMPR_PROCESS&lt;br&gt;&lt;/font&gt;" style="shape=process;whiteSpace=wrap;html=1;backgroundOutline=1;fontSize=11;size=0.041666666666666664;" vertex="1" parent="1">
          <mxGeometry x="60" y="240" width="200" height="50" as="geometry" />
        </mxCell>
        <mxCell id="vYEnDuHJtDRZxf-aEN4W-9" value="End" style="html=1;dashed=0;whiteSpace=wrap;shape=mxgraph.dfd.start;fontSize=11;" vertex="1" parent="1">
          <mxGeometry x="80" y="310" width="160" height="40" as="geometry" />
        </mxCell>
        <mxCell id="vYEnDuHJtDRZxf-aEN4W-10" style="edgeStyle=orthogonalEdgeStyle;rounded=0;orthogonalLoop=1;jettySize=auto;html=1;exitX=0.5;exitY=1;exitDx=0;exitDy=0;entryX=0.5;entryY=0.5;entryDx=0;entryDy=-20;entryPerimeter=0;" edge="1" parent="1" source="vYEnDuHJtDRZxf-aEN4W-8" target="vYEnDuHJtDRZxf-aEN4W-9">
          <mxGeometry relative="1" as="geometry" />
        </mxCell>
        <mxCell id="vYEnDuHJtDRZxf-aEN4W-11" value="&lt;font style=&quot;font-size: 11px;&quot;&gt;A&lt;/font&gt;" style="ellipse;whiteSpace=wrap;html=1;aspect=fixed;" vertex="1" parent="1">
          <mxGeometry x="290" y="250" width="30" height="30" as="geometry" />
        </mxCell>
        <mxCell id="vYEnDuHJtDRZxf-aEN4W-12" style="edgeStyle=orthogonalEdgeStyle;rounded=0;orthogonalLoop=1;jettySize=auto;html=1;exitX=0.5;exitY=1;exitDx=0;exitDy=0;entryX=0.5;entryY=0;entryDx=0;entryDy=0;" edge="1" parent="1" source="vYEnDuHJtDRZxf-aEN4W-13" target="vYEnDuHJtDRZxf-aEN4W-15">
          <mxGeometry relative="1" as="geometry" />
        </mxCell>
        <mxCell id="vYEnDuHJtDRZxf-aEN4W-13" value="&lt;font style=&quot;font-size: 11px;&quot;&gt;A&lt;/font&gt;" style="ellipse;whiteSpace=wrap;html=1;aspect=fixed;" vertex="1" parent="1">
          <mxGeometry x="450" y="45" width="30" height="30" as="geometry" />
        </mxCell>
        <mxCell id="vYEnDuHJtDRZxf-aEN4W-14" style="edgeStyle=orthogonalEdgeStyle;rounded=0;orthogonalLoop=1;jettySize=auto;html=1;exitX=0.5;exitY=1;exitDx=0;exitDy=0;entryX=0.5;entryY=0;entryDx=0;entryDy=0;" edge="1" parent="1" source="vYEnDuHJtDRZxf-aEN4W-15" target="vYEnDuHJtDRZxf-aEN4W-17">
          <mxGeometry relative="1" as="geometry" />
        </mxCell>
        <mxCell id="vYEnDuHJtDRZxf-aEN4W-15" value="Check SY-TCODE &lt;br style=&quot;font-size: 11px;&quot;&gt;IF EQ &#39;ME54N&#39;" style="rhombus;whiteSpace=wrap;html=1;fontSize=11;spacingTop=6;" vertex="1" parent="1">
          <mxGeometry x="386.25" y="100" width="157.5" height="100" as="geometry" />
        </mxCell>
        <mxCell id="vYEnDuHJtDRZxf-aEN4W-16" style="edgeStyle=orthogonalEdgeStyle;rounded=0;orthogonalLoop=1;jettySize=auto;html=1;exitX=0.5;exitY=1;exitDx=0;exitDy=0;entryX=0.5;entryY=0;entryDx=0;entryDy=0;" edge="1" parent="1" source="vYEnDuHJtDRZxf-aEN4W-17" target="vYEnDuHJtDRZxf-aEN4W-19">
          <mxGeometry relative="1" as="geometry" />
        </mxCell>
        <mxCell id="vYEnDuHJtDRZxf-aEN4W-17" value="&lt;font style=&quot;font-size: 11px;&quot;&gt;Perform Subroutine ADD_WORKINGDAYS_BY_PLANT&lt;br&gt;Returning EARLIST_REL_DATE&lt;br&gt;&lt;/font&gt;" style="shape=process;whiteSpace=wrap;html=1;backgroundOutline=1;fontSize=11;size=0.041666666666666664;" vertex="1" parent="1">
          <mxGeometry x="365" y="220" width="200" height="50" as="geometry" />
        </mxCell>
        <mxCell id="vYEnDuHJtDRZxf-aEN4W-18" style="edgeStyle=orthogonalEdgeStyle;rounded=0;orthogonalLoop=1;jettySize=auto;html=1;exitX=0;exitY=0.5;exitDx=0;exitDy=0;" edge="1" parent="1" source="vYEnDuHJtDRZxf-aEN4W-19">
          <mxGeometry relative="1" as="geometry">
            <mxPoint x="340" y="340" as="targetPoint" />
          </mxGeometry>
        </mxCell>
        <mxCell id="vYEnDuHJtDRZxf-aEN4W-19" value="Check SY-DATUM&lt;br style=&quot;font-size: 11px;&quot;&gt;IF Less than EARLIST_REL_DATE&amp;nbsp;" style="rhombus;whiteSpace=wrap;html=1;fontSize=11;spacingTop=-6;" vertex="1" parent="1">
          <mxGeometry x="386.25" y="290" width="157.5" height="100" as="geometry" />
        </mxCell>
        <mxCell id="vYEnDuHJtDRZxf-aEN4W-20" value="Output Message &quot;PR Release Date Not Reached&quot;" style="shape=manualInput;whiteSpace=wrap;html=1;fontSize=11;size=13;spacingTop=7;" vertex="1" parent="1">
          <mxGeometry x="385" y="400" width="160" height="50" as="geometry" />
        </mxCell>
        <mxCell id="vYEnDuHJtDRZxf-aEN4W-21" style="edgeStyle=orthogonalEdgeStyle;rounded=0;orthogonalLoop=1;jettySize=auto;html=1;exitX=0.5;exitY=1;exitDx=0;exitDy=0;entryX=0.498;entryY=0.16;entryDx=0;entryDy=0;entryPerimeter=0;" edge="1" parent="1" source="vYEnDuHJtDRZxf-aEN4W-19" target="vYEnDuHJtDRZxf-aEN4W-20">
          <mxGeometry relative="1" as="geometry" />
        </mxCell>
        <mxCell id="vYEnDuHJtDRZxf-aEN4W-22" value="End" style="html=1;dashed=0;whiteSpace=wrap;shape=mxgraph.dfd.start;fontSize=11;" vertex="1" parent="1">
          <mxGeometry x="385" y="470" width="160" height="40" as="geometry" />
        </mxCell>
        <mxCell id="vYEnDuHJtDRZxf-aEN4W-23" style="edgeStyle=orthogonalEdgeStyle;rounded=0;orthogonalLoop=1;jettySize=auto;html=1;exitX=0.5;exitY=1;exitDx=0;exitDy=0;entryX=0.5;entryY=0.5;entryDx=0;entryDy=-20;entryPerimeter=0;" edge="1" parent="1" source="vYEnDuHJtDRZxf-aEN4W-20" target="vYEnDuHJtDRZxf-aEN4W-22">
          <mxGeometry relative="1" as="geometry" />
        </mxCell>
        <mxCell id="vYEnDuHJtDRZxf-aEN4W-24" style="edgeStyle=orthogonalEdgeStyle;rounded=0;orthogonalLoop=1;jettySize=auto;html=1;exitX=0;exitY=0.5;exitDx=0;exitDy=0;entryX=0;entryY=0.5;entryDx=0;entryDy=0;entryPerimeter=0;" edge="1" parent="1" source="vYEnDuHJtDRZxf-aEN4W-15" target="vYEnDuHJtDRZxf-aEN4W-22">
          <mxGeometry relative="1" as="geometry">
            <Array as="points">
              <mxPoint x="340" y="150" />
              <mxPoint x="340" y="490" />
            </Array>
          </mxGeometry>
        </mxCell>
        <mxCell id="vYEnDuHJtDRZxf-aEN4W-25" value="N" style="edgeLabel;html=1;align=center;verticalAlign=middle;resizable=0;points=[];" vertex="1" connectable="0" parent="vYEnDuHJtDRZxf-aEN4W-24">
          <mxGeometry x="-0.5119" y="1" relative="1" as="geometry">
            <mxPoint as="offset" />
          </mxGeometry>
        </mxCell>
        <mxCell id="vYEnDuHJtDRZxf-aEN4W-26" value="Y" style="text;html=1;align=center;verticalAlign=middle;resizable=0;points=[];autosize=1;strokeColor=none;fillColor=none;" vertex="1" parent="1">
          <mxGeometry x="465" y="188" width="30" height="30" as="geometry" />
        </mxCell>
        <mxCell id="vYEnDuHJtDRZxf-aEN4W-27" value="Y" style="text;html=1;align=center;verticalAlign=middle;resizable=0;points=[];autosize=1;strokeColor=none;fillColor=none;" vertex="1" parent="1">
          <mxGeometry x="465" y="380" width="30" height="30" as="geometry" />
        </mxCell>
      </root>
    </mxGraphModel>
  </diagram>
</mxfile>
